#!OML:ASF G:\ViconDB\ViconDB\414\test\team2\shane.ASF
:FULLY-SPECIFIED
:DEGREES
141
root 1.84733 16.4907 -16.0357 -9.97463 8.41022 -7.75335
lowerback 6.67788 -1.32235 6.86789
upperback 7.07478 -1.5917 5.2232
thorax 3.60827 -0.620172 1.64953
lowerneck -6.78147 -5.26957 -8.95208
upperneck 44.1337 -0.248418 -12.8505
head 17.8516 -3.10075 -4.45644
rclavicle -2.18663e-014 3.18055e-015
rhumerus -14.7295 -14.7405 -47.749
rradius 123.13
rwrist 153.386
rhand -10.0555 16.54
rfingers 7.12502
rthumb 15.9302 -12.8249
lclavicle -2.18663e-014 3.18055e-015
lhumerus -44.8467 -28.4894 100.748
lradius 38.4799
lwrist -15.3926
lhand -36.8855 5.33185
lfingers 7.12502
lthumb -9.96415 35.076
rfemur -3.86313 -21.247 21.6263
rtibia 39.3376
rfoot -25.8825 4.31681
rtoes -7.4491
lfemur -5.23601 5.42296 -0.65268
ltibia 73.8351
lfoot -17.4806 -14.5009
ltoes -11.736
142
root 1.82956 16.4877 -15.8696 -10.1272 8.10574 -7.68223
lowerback 6.62473 -1.20142 6.85834
upperback 7.17872 -1.44796 5.29608
thorax 3.75413 -0.546486 1.72563
lowerneck -6.53877 -5.35504 -9.09847
upperneck 44.3626 -0.237182 -13.1149
head 17.9482 -3.14837 -4.57644
rclavicle 5.96354e-016 2.62396e-014
rhumerus -14.4448 -10.7 -47.17
rradius 121.415
rwrist 153.006
rhand -10.3112 17.7569
rfingers 7.12502
rthumb 15.684 -11.6274
lclavicle 5.96354e-016 2.62396e-014
lhumerus -45.0594 -28.1341 100.87
lradius 38.7393
lwrist -15.4245
lhand -36.9408 4.90383
lfingers 7.12502
lthumb -10.0176 34.6454
rfemur -2.85423 -20.8947 21.5044
rtibia 39.0965
rfoot -26.2897 3.97475
rtoes -8.75872
lfemur -6.37512 6.12373 -1.02698
ltibia 73.7682
lfoot -18.6575 -14.2542
ltoes -11.7705
143
root 1.81533 16.4836 -15.7039 -10.2896 7.80341 -7.73328
lowerback 6.82767 -1.10823 7.39358
upperback 7.12385 -1.271 5.07314
thorax 3.5753 -0.432857 1.19308
lowerneck -6.24924 -5.42033 -9.08618
upperneck 44.6907 -0.378904 -13.0238
head 18.0627 -3.19558 -4.58374
rclavicle -2.20651e-014 -9.54166e-015
rhumerus -14.7583 -6.63446 -47.0525
rradius 120.145
rwrist 154.648
rhand -11.27 18.7303
rfingers 7.12502
rthumb 14.7604 -10.7241
lclavicle -2.20651e-014 -9.54166e-015
lhumerus -45.6547 -27.9567 100.659
lradius 39.2034
lwrist -15.2744
lhand -36.8899 4.70803
lfingers 7.12502
lthumb -9.96838 34.452
rfemur -1.77023 -20.6399 21.4719
rtibia 38.6827
rfoot -26.6711 3.98922
rtoes -9.06104
lfemur -7.46141 6.72821 -1.35773
ltibia 73.3701
lfoot -19.6963 -13.7703
ltoes -12.167
144
root 1.79952 16.4901 -15.5318 -10.3103 7.3671 -7.5277
lowerback 6.79081 -0.937436 7.40175
upperback 7.13742 -1.04742 4.93216
thorax 3.61388 -0.316274 1.03211
lowerneck -6.107 -5.47904 -8.96525
upperneck 44.8136 -0.411538 -13.2458
head 18.0973 -3.21527 -4.72685
rclavicle 6.85807e-015 2.62396e-014
rhumerus -15.0171 -3.5769 -46.9609
rradius 118.791
rwrist 152.621
rhand -11.6416 20.0116
rfingers 7.12502
rthumb 14.4023 -9.46869
lclavicle 6.85807e-015 2.62396e-014
lhumerus -46.0857 -27.5466 100.506
lradius 39.185
lwrist -16.9785
lhand -37.6775 5.31171
lfingers 7.12502
lthumb -10.7282 35.0178
rfemur -0.758189 -19.961 21.3128
rtibia 38.1498
rfoot -26.943 3.81967
rtoes -9.3211
lfemur -8.50034 7.62675 -1.86799
ltibia 72.6414
lfoot -20.5082 -13.4796
ltoes -11.7793
145
root 1.77797 16.5059 -15.358 -10.2893 6.9908 -7.32962
lowerback 6.68819 -0.739782 7.27743
upperback 7.16217 -0.80219 4.83583
thorax 3.70385 -0.194436 0.990206
lowerneck -6.04508 -5.6145 -9.15874
upperneck 44.9293 -0.582855 -13.203
head 18.1544 -3.3134 -4.71192
rclavicle -2.18663e-014 -2.94201e-014
rhumerus -15.4757 -1.18523 -46.6671
rradius 118.138
rwrist 151.993
rhand -13.7352 20.7393
rfingers 7.12502
rthumb 12.3844 -8.87389
lclavicle -2.18663e-014 -2.94201e-014
lhumerus -46.5856 -27.1576 100.391
lradius 39.6407
lwrist -17.7673
lhand -37.8122 5.64056
lfingers 7.12502
lthumb -10.8581 35.3399
rfemur 0.270521 -19.2728 21.2171
rtibia 37.463
rfoot -27.0628 3.57907
rtoes -9.58406
lfemur -9.55543 8.30639 -2.46599
ltibia 71.5686
lfoot -21.2912 -12.9361
ltoes -11.7375
146
root 1.76242 16.5194 -15.1873 -10.2915 6.8461 -7.13013
lowerback 6.71452 -0.608341 7.35961
upperback 7.05274 -0.607138 4.56504
thorax 3.57538 -0.0910413 0.65386
lowerneck -5.81315 -5.65536 -9.08449
upperneck 44.9243 -0.77282 -13.0202
head 18.0642 -3.35443 -4.64798
rclavicle -4.37326e-015 -6.36111e-015
rhumerus -16.637 0.881017 -46.8829
rradius 118.274
rwrist 154.264
rhand -15.8478 20.3788
rfingers 7.12502
rthumb 10.347 -9.34667
lclavicle -4.37326e-015 -6.36111e-015
lhumerus -47.2951 -26.931 100.311
lradius 40.1914
lwrist -17.2278
lhand -38.1706 5.37204
lfingers 7.12502
lthumb -11.2038 35.0529
rfemur 1.38848 -18.7424 21.0667
rtibia 36.6265
rfoot -27.1782 3.25851
rtoes -9.68758
lfemur -10.5177 8.82248 -3.09891
ltibia 70.1825
lfoot -22.1776 -12.4441
ltoes -12.0637
147
root 1.74374 16.5452 -15.0158 -10.2143 6.80213 -6.82448
lowerback 6.64596 -0.399636 6.98753
upperback 7.01946 -0.346385 4.45433
thorax 3.58419 0.0258313 0.733667
lowerneck -5.75423 -5.85039 -8.92693
upperneck 44.7748 -1.07829 -13.1554
head 17.9227 -3.46471 -4.75881
rclavicle -2.9122e-014 1.11319e-014
rhumerus -17.8753 1.89866 -46.8532
rradius 118.246
rwrist 155.086
rhand -18.1484 17.5981
rfingers 7.12502
rthumb 8.12712 -12.2256
lclavicle -2.9122e-014 1.11319e-014
lhumerus -47.7985 -26.7419 100.371
lradius 40.7189
lwrist -17.3481
lhand -38.3214 5.57107
lfingers 7.12502
lthumb -11.3492 35.244
rfemur 2.50803 -18.2911 20.8171
rtibia 35.6304
rfoot -27.1863 2.99678
rtoes -9.96435
lfemur -11.5418 9.14211 -3.94123
ltibia 68.5082
lfoot -23.1655 -11.6908
ltoes -11.2072
